<?xml version="1.0" encoding="UTF-8" standalone="no"?>
<!DOCTYPE score-partwise PUBLIC "-//Recordare//DTD MusicXML 3.0 Partwise//EN" "http://www.musicxml.org/dtds/partwise.dtd"><score-partwise version="3.0"><work><work-title>Tenebroso [3]</work-title></work><identification><creator type="composer">Achim Bornhoeft</creator><rights>Copyright © 2025</rights><encoding><encoding-date>2025-08-31</encoding-date><software>Opusmodus</software><encoding-description>https://opusmodus.com</encoding-description></encoding></identification><credit><credit-type>title</credit-type><credit-words>Tenebroso [3]</credit-words></credit><credit><credit-type>composer</credit-type><credit-words>Achim Bornhoeft</credit-words></credit><credit><credit-type>rights</credit-type><credit-words>Copyright © 2025</credit-words></credit><part-list><part-group type="start" number="2"><group-symbol>bracket</group-symbol><group-barline>yes</group-barline></part-group><score-part id="part-Doublebass1-1"><part-name>Doublebass 1</part-name><part-abbreviation>Cb.</part-abbreviation></score-part><score-part id="part-Doublebass2-2"><part-name>Doublebass 2</part-name><part-abbreviation>Cb.</part-abbreviation></score-part><score-part id="part-Doublebass3-3"><part-name>Doublebass 3</part-name><part-abbreviation>Cb.</part-abbreviation></score-part><score-part id="part-Doublebass4-4"><part-name>Doublebass 4</part-name><part-abbreviation>Cb.</part-abbreviation></score-part><part-group type="stop" number="2"/></part-list><part id="part-Doublebass1-1"><measure number="1"><print><measure-numbering>measure</measure-numbering></print><attributes><divisions>4</divisions><key><fifths>0</fifths><mode>major</mode></key><time><beats>4</beats><beat-type>4</beat-type></time><clef><sign>F</sign><line>4</line></clef></attributes><direction placement="above" directive="yes"><direction-type><metronome><beat-unit>quarter</beat-unit><per-minute>6</per-minute></metronome></direction-type></direction><direction><direction-type><words>molto legato</words></direction-type></direction><direction><direction-type><words>sord - practise metal mute</words></direction-type></direction><note dynamics="20"><pitch><step>G</step><alter>0</alter><octave>1</octave></pitch><duration>8</duration><type>half</type><notations><dynamics placement="below"><ppp/></dynamics></notations></note><note><pitch><step>G</step><alter>0</alter><octave>1</octave></pitch><duration>4</duration><type>quarter</type></note><note><pitch><step>G</step><alter>0</alter><octave>1</octave></pitch><duration>4</duration><type>quarter</type></note></measure><measure number="2"><attributes><divisions>4</divisions></attributes><note dynamics="20"><pitch><step>G</step><alter>0</alter><octave>1</octave></pitch><duration>8</duration><type>half</type></note><note><pitch><step>A</step><alter>0</alter><octave>1</octave></pitch><duration>4</duration><type>quarter</type></note><note><pitch><step>B</step><alter>-1</alter><octave>1</octave></pitch><duration>4</duration><type>quarter</type><accidental>flat</accidental></note></measure><measure number="3"><attributes><divisions>4</divisions></attributes><note dynamics="20"><pitch><step>A</step><alter>0</alter><octave>1</octave></pitch><duration>8</duration><type>half</type></note><note><pitch><step>G</step><alter>0</alter><octave>1</octave></pitch><duration>4</duration><type>quarter</type></note><note><pitch><step>F</step><alter>1</alter><octave>1</octave></pitch><duration>4</duration><type>quarter</type><accidental>sharp</accidental></note></measure><measure number="4"><attributes><divisions>4</divisions></attributes><note dynamics="20"><pitch><step>G</step><alter>0</alter><octave>1</octave></pitch><duration>8</duration><type>half</type></note><note><pitch><step>G</step><alter>0</alter><octave>1</octave></pitch><duration>4</duration><type>quarter</type></note><note><pitch><step>G</step><alter>0</alter><octave>1</octave></pitch><duration>4</duration><type>quarter</type></note></measure><measure number="5"><attributes><divisions>4</divisions></attributes><note dynamics="20"><pitch><step>G</step><alter>0</alter><octave>1</octave></pitch><duration>8</duration><type>half</type></note><note><pitch><step>G</step><alter>0</alter><octave>1</octave></pitch><duration>4</duration><type>quarter</type></note><note><pitch><step>G</step><alter>0</alter><octave>1</octave></pitch><duration>4</duration><type>quarter</type></note></measure><measure number="6"><attributes><divisions>4</divisions></attributes><note dynamics="20"><pitch><step>G</step><alter>0</alter><octave>1</octave></pitch><duration>8</duration><type>half</type></note><note><pitch><step>A</step><alter>0</alter><octave>1</octave></pitch><duration>4</duration><type>quarter</type></note><note><pitch><step>B</step><alter>-1</alter><octave>1</octave></pitch><duration>4</duration><type>quarter</type><accidental>flat</accidental></note></measure><measure number="7"><attributes><divisions>4</divisions></attributes><note dynamics="20"><pitch><step>G</step><alter>0</alter><octave>1</octave></pitch><duration>8</duration><type>half</type></note><note><pitch><step>F</step><alter>1</alter><octave>1</octave></pitch><duration>8</duration><type>half</type><accidental>sharp</accidental></note></measure><measure number="8"><attributes><divisions>4</divisions></attributes><note dynamics="20"><pitch><step>G</step><alter>0</alter><octave>1</octave></pitch><duration>8</duration><type>half</type></note><note><rest/><duration>8</duration><type>half</type></note></measure><measure number="9"><attributes><divisions>4</divisions></attributes><note dynamics="20"><pitch><step>G</step><alter>0</alter><octave>1</octave></pitch><duration>8</duration><type>half</type></note><note><pitch><step>G</step><alter>0</alter><octave>1</octave></pitch><duration>4</duration><type>quarter</type></note><note><pitch><step>G</step><alter>0</alter><octave>1</octave></pitch><duration>4</duration><type>quarter</type></note></measure><measure number="10"><attributes><divisions>4</divisions></attributes><note dynamics="20"><pitch><step>G</step><alter>0</alter><octave>1</octave></pitch><duration>8</duration><type>half</type></note><note><pitch><step>A</step><alter>0</alter><octave>1</octave></pitch><duration>4</duration><type>quarter</type></note><note><pitch><step>B</step><alter>-1</alter><octave>1</octave></pitch><duration>4</duration><type>quarter</type><accidental>flat</accidental></note></measure><measure number="11"><attributes><divisions>4</divisions></attributes><note dynamics="20"><pitch><step>A</step><alter>0</alter><octave>1</octave></pitch><duration>8</duration><type>half</type></note><note><pitch><step>G</step><alter>0</alter><octave>1</octave></pitch><duration>4</duration><type>quarter</type></note><note><pitch><step>F</step><alter>1</alter><octave>1</octave></pitch><duration>4</duration><type>quarter</type><accidental>sharp</accidental></note></measure><measure number="12"><attributes><divisions>4</divisions></attributes><note dynamics="20"><pitch><step>G</step><alter>0</alter><octave>1</octave></pitch><duration>8</duration><type>half</type></note><note><pitch><step>G</step><alter>0</alter><octave>1</octave></pitch><duration>4</duration><type>quarter</type></note><note><pitch><step>G</step><alter>0</alter><octave>1</octave></pitch><duration>4</duration><type>quarter</type></note></measure><measure number="13"><attributes><divisions>4</divisions></attributes><note dynamics="20"><pitch><step>G</step><alter>0</alter><octave>1</octave></pitch><duration>8</duration><type>half</type></note><note><pitch><step>G</step><alter>0</alter><octave>1</octave></pitch><duration>4</duration><type>quarter</type></note><note><pitch><step>G</step><alter>0</alter><octave>1</octave></pitch><duration>4</duration><type>quarter</type></note></measure><measure number="14"><attributes><divisions>4</divisions></attributes><note dynamics="20"><pitch><step>G</step><alter>0</alter><octave>1</octave></pitch><duration>8</duration><type>half</type></note><note><pitch><step>A</step><alter>0</alter><octave>1</octave></pitch><duration>4</duration><type>quarter</type></note><note><pitch><step>B</step><alter>-1</alter><octave>1</octave></pitch><duration>4</duration><type>quarter</type><accidental>flat</accidental></note></measure><measure number="15"><attributes><divisions>4</divisions></attributes><note dynamics="20"><pitch><step>G</step><alter>0</alter><octave>1</octave></pitch><duration>8</duration><type>half</type></note><note><pitch><step>F</step><alter>1</alter><octave>1</octave></pitch><duration>8</duration><type>half</type><accidental>sharp</accidental></note></measure><measure number="16"><attributes><divisions>4</divisions></attributes><note dynamics="20"><pitch><step>G</step><alter>0</alter><octave>1</octave></pitch><duration>8</duration><type>half</type></note><note><rest/><duration>8</duration><type>half</type></note></measure><measure number="17"><attributes><divisions>4</divisions></attributes><note dynamics="20"><pitch><step>G</step><alter>0</alter><octave>1</octave></pitch><duration>8</duration><type>half</type></note><note><pitch><step>G</step><alter>0</alter><octave>1</octave></pitch><duration>4</duration><type>quarter</type></note><note><pitch><step>G</step><alter>0</alter><octave>1</octave></pitch><duration>4</duration><type>quarter</type></note></measure><measure number="18"><attributes><divisions>4</divisions></attributes><note dynamics="20"><pitch><step>B</step><alter>-1</alter><octave>1</octave></pitch><duration>8</duration><type>half</type><accidental>flat</accidental></note><note><pitch><step>B</step><alter>-1</alter><octave>1</octave></pitch><duration>8</duration><type>half</type></note></measure><measure number="19"><attributes><divisions>4</divisions></attributes><note dynamics="20"><pitch><step>G</step><alter>0</alter><octave>1</octave></pitch><duration>8</duration><type>half</type></note><note><pitch><step>G</step><alter>0</alter><octave>1</octave></pitch><duration>4</duration><type>quarter</type></note><note><pitch><step>A</step><alter>0</alter><octave>1</octave></pitch><duration>4</duration><type>quarter</type></note></measure><measure number="20"><attributes><divisions>4</divisions></attributes><note dynamics="20"><pitch><step>D</step><alter>0</alter><octave>1</octave></pitch><duration>8</duration><type>half</type></note><note><pitch><step>D</step><alter>0</alter><octave>1</octave></pitch><duration>8</duration><type>half</type></note></measure><measure number="21"><attributes><divisions>4</divisions></attributes><note dynamics="20"><pitch><step>G</step><alter>0</alter><octave>1</octave></pitch><duration>8</duration><type>half</type></note><note><pitch><step>G</step><alter>0</alter><octave>1</octave></pitch><duration>4</duration><type>quarter</type></note><note><pitch><step>G</step><alter>0</alter><octave>1</octave></pitch><duration>4</duration><type>quarter</type></note></measure><measure number="22"><attributes><divisions>4</divisions></attributes><note dynamics="20"><pitch><step>B</step><alter>-1</alter><octave>1</octave></pitch><duration>8</duration><type>half</type><accidental>flat</accidental></note><note><pitch><step>B</step><alter>-1</alter><octave>1</octave></pitch><duration>8</duration><type>half</type></note></measure><measure number="23"><attributes><divisions>4</divisions></attributes><note dynamics="20"><pitch><step>F</step><alter>0</alter><octave>1</octave></pitch><duration>8</duration><type>half</type></note><note><pitch><step>F</step><alter>0</alter><octave>1</octave></pitch><duration>4</duration><type>quarter</type></note><note><pitch><step>F</step><alter>0</alter><octave>1</octave></pitch><duration>4</duration><type>quarter</type></note></measure><measure number="24"><attributes><divisions>4</divisions></attributes><note dynamics="20"><pitch><step>F</step><alter>0</alter><octave>1</octave></pitch><duration>8</duration><type>half</type></note><note><rest/><duration>8</duration><type>half</type></note></measure><measure number="25"><attributes><divisions>4</divisions></attributes><note dynamics="20"><pitch><step>G</step><alter>0</alter><octave>1</octave></pitch><duration>8</duration><type>half</type></note><note><pitch><step>F</step><alter>0</alter><octave>1</octave></pitch><duration>4</duration><type>quarter</type></note><note><pitch><step>E</step><alter>-1</alter><octave>1</octave></pitch><duration>4</duration><type>quarter</type><accidental>flat</accidental></note></measure><measure number="26"><attributes><divisions>4</divisions></attributes><note dynamics="20"><pitch><step>F</step><alter>0</alter><octave>1</octave></pitch><duration>8</duration><type>half</type></note><note><pitch><step>F</step><alter>0</alter><octave>1</octave></pitch><duration>4</duration><type>quarter</type></note><note><pitch><step>G</step><alter>0</alter><octave>1</octave></pitch><duration>4</duration><type>quarter</type></note></measure><measure number="27"><attributes><divisions>4</divisions></attributes><note dynamics="20"><pitch><step>G</step><alter>1</alter><octave>1</octave></pitch><duration>8</duration><type>half</type><accidental>sharp</accidental></note><note><pitch><step>G</step><alter>0</alter><octave>1</octave></pitch><duration>4</duration><type>quarter</type><accidental>natural</accidental></note><note><pitch><step>F</step><alter>0</alter><octave>1</octave></pitch><duration>4</duration><type>quarter</type></note></measure><measure number="28"><attributes><divisions>4</divisions></attributes><direction><direction-type><words>○</words></direction-type></direction><note dynamics="20"><pitch><step>G</step><alter>0</alter><octave>4</octave></pitch><duration>8</duration><type>half</type></note><note><pitch><step>G</step><alter>0</alter><octave>4</octave></pitch><duration>4</duration><type>quarter</type></note><note><pitch><step>G</step><alter>0</alter><octave>4</octave></pitch><duration>4</duration><type>quarter</type></note></measure><measure number="29"><attributes><divisions>4</divisions></attributes><note dynamics="20"><pitch><step>G</step><alter>0</alter><octave>4</octave></pitch><duration>8</duration><type>half</type></note><note><pitch><step>G</step><alter>0</alter><octave>4</octave></pitch><duration>4</duration><type>quarter</type></note><note><pitch><step>G</step><alter>0</alter><octave>4</octave></pitch><duration>4</duration><type>quarter</type></note></measure><measure number="30"><attributes><divisions>4</divisions></attributes><note dynamics="20"><pitch><step>G</step><alter>0</alter><octave>1</octave></pitch><duration>8</duration><type>half</type></note><note><pitch><step>G</step><alter>0</alter><octave>1</octave></pitch><duration>4</duration><type>quarter</type></note><note><pitch><step>G</step><alter>0</alter><octave>1</octave></pitch><duration>4</duration><type>quarter</type></note></measure><measure number="31"><attributes><divisions>16</divisions></attributes><note dynamics="20"><pitch><step>G</step><alter>0</alter><octave>1</octave></pitch><duration>16</duration><type>quarter</type></note><note><pitch><step>A</step><alter>0</alter><octave>1</octave></pitch><duration>4</duration><type>16th</type><beam number="1">begin</beam><beam number="2">begin</beam></note><note><pitch><step>G</step><alter>0</alter><octave>1</octave></pitch><duration>4</duration><type>16th</type><beam number="1">continue</beam><beam number="2">continue</beam></note><note><pitch><step>F</step><alter>1</alter><octave>1</octave></pitch><duration>4</duration><type>16th</type><accidental>sharp</accidental><beam number="1">continue</beam><beam number="2">continue</beam></note><note><pitch><step>G</step><alter>0</alter><octave>1</octave></pitch><duration>4</duration><type>16th</type><beam number="1">end</beam><beam number="2">end</beam></note><note><pitch><step>B</step><alter>0</alter><octave>1</octave></pitch><duration>24</duration><type>quarter</type><dot/></note><note><pitch><step>A</step><alter>0</alter><octave>1</octave></pitch><duration>8</duration><type>eighth</type></note></measure><measure number="32"><attributes><divisions>4</divisions></attributes><note dynamics="20"><pitch><step>G</step><alter>0</alter><octave>1</octave></pitch><duration>8</duration><type>half</type></note><note><rest/><duration>8</duration><type>half</type></note><barline><bar-style>light-heavy</bar-style></barline></measure></part><part id="part-Doublebass2-2"><measure number="1"><attributes><divisions>4</divisions><key><fifths>0</fifths><mode>major</mode></key><time><beats>4</beats><beat-type>4</beat-type></time><clef><sign>F</sign><line>4</line></clef></attributes><direction><direction-type><words>molto legato</words></direction-type></direction><direction><direction-type><words>sord - practise metal mute</words></direction-type></direction><note dynamics="20"><pitch><step>D</step><alter>0</alter><octave>1</octave></pitch><duration>8</duration><type>half</type><notations><dynamics placement="below"><ppp/></dynamics></notations></note><note><pitch><step>E</step><alter>-1</alter><octave>1</octave></pitch><duration>4</duration><type>quarter</type><accidental>flat</accidental></note><note><pitch><step>C</step><alter>0</alter><octave>1</octave></pitch><duration>4</duration><type>quarter</type></note></measure><measure number="2"><attributes><divisions>4</divisions></attributes><note dynamics="20"><pitch><step>D</step><alter>0</alter><octave>1</octave></pitch><duration>8</duration><type>half</type></note><note><pitch><step>D</step><alter>0</alter><octave>1</octave></pitch><duration>4</duration><type>quarter</type></note><note><pitch><step>D</step><alter>0</alter><octave>1</octave></pitch><duration>4</duration><type>quarter</type></note></measure><measure number="3"><attributes><divisions>4</divisions></attributes><note dynamics="20"><pitch><step>D</step><alter>0</alter><octave>1</octave></pitch><duration>8</duration><type>half</type></note><note><pitch><step>D</step><alter>0</alter><octave>1</octave></pitch><duration>4</duration><type>quarter</type></note><note><pitch><step>D</step><alter>0</alter><octave>1</octave></pitch><duration>4</duration><type>quarter</type></note></measure><measure number="4"><attributes><divisions>4</divisions></attributes><note dynamics="20"><pitch><step>D</step><alter>0</alter><octave>1</octave></pitch><duration>8</duration><type>half</type></note><note><pitch><step>B</step><alter>-1</alter><octave>0</octave></pitch><duration>4</duration><type>quarter</type><accidental>flat</accidental></note><note><pitch><step>C</step><alter>0</alter><octave>1</octave></pitch><duration>4</duration><type>quarter</type></note></measure><measure number="5"><attributes><divisions>4</divisions></attributes><note dynamics="20"><pitch><step>D</step><alter>0</alter><octave>1</octave></pitch><duration>8</duration><type>half</type></note><note><pitch><step>E</step><alter>-1</alter><octave>1</octave></pitch><duration>4</duration><type>quarter</type><accidental>flat</accidental></note><note><pitch><step>C</step><alter>0</alter><octave>1</octave></pitch><duration>4</duration><type>quarter</type></note></measure><measure number="6"><attributes><divisions>4</divisions></attributes><note dynamics="20"><pitch><step>D</step><alter>0</alter><octave>1</octave></pitch><duration>8</duration><type>half</type></note><note><pitch><step>C</step><alter>0</alter><octave>1</octave></pitch><duration>4</duration><type>quarter</type></note><note><pitch><step>B</step><alter>-1</alter><octave>0</octave></pitch><duration>4</duration><type>quarter</type><accidental>flat</accidental></note></measure><measure number="7"><attributes><divisions>4</divisions></attributes><note dynamics="20"><pitch><step>C</step><alter>0</alter><octave>1</octave></pitch><duration>8</duration><type>half</type></note><note><pitch><step>D</step><alter>0</alter><octave>1</octave></pitch><duration>8</duration><type>half</type></note></measure><measure number="8"><attributes><divisions>4</divisions></attributes><note dynamics="20"><pitch><step>D</step><alter>0</alter><octave>1</octave></pitch><duration>8</duration><type>half</type></note><note><rest/><duration>8</duration><type>half</type></note></measure><measure number="9"><attributes><divisions>4</divisions></attributes><note dynamics="20"><pitch><step>D</step><alter>0</alter><octave>1</octave></pitch><duration>8</duration><type>half</type></note><note><pitch><step>E</step><alter>-1</alter><octave>1</octave></pitch><duration>4</duration><type>quarter</type><accidental>flat</accidental></note><note><pitch><step>C</step><alter>0</alter><octave>1</octave></pitch><duration>4</duration><type>quarter</type></note></measure><measure number="10"><attributes><divisions>4</divisions></attributes><direction><direction-type><words>○</words></direction-type></direction><note dynamics="20"><pitch><step>D</step><alter>0</alter><octave>4</octave></pitch><duration>8</duration><type>half</type></note><note><pitch><step>D</step><alter>0</alter><octave>4</octave></pitch><duration>4</duration><type>quarter</type></note><note><pitch><step>D</step><alter>0</alter><octave>4</octave></pitch><duration>4</duration><type>quarter</type></note></measure><measure number="11"><attributes><divisions>4</divisions></attributes><note dynamics="20"><pitch><step>D</step><alter>0</alter><octave>4</octave></pitch><duration>8</duration><type>half</type></note><note><pitch><step>D</step><alter>0</alter><octave>4</octave></pitch><duration>4</duration><type>quarter</type></note><note><pitch><step>D</step><alter>0</alter><octave>4</octave></pitch><duration>4</duration><type>quarter</type></note></measure><measure number="12"><attributes><divisions>4</divisions></attributes><note dynamics="20"><pitch><step>D</step><alter>0</alter><octave>1</octave></pitch><duration>8</duration><type>half</type></note><note><pitch><step>B</step><alter>-1</alter><octave>0</octave></pitch><duration>4</duration><type>quarter</type><accidental>flat</accidental></note><note><pitch><step>C</step><alter>0</alter><octave>1</octave></pitch><duration>4</duration><type>quarter</type></note></measure><measure number="13"><attributes><divisions>4</divisions></attributes><note dynamics="20"><pitch><step>D</step><alter>0</alter><octave>1</octave></pitch><duration>8</duration><type>half</type></note><note><pitch><step>E</step><alter>-1</alter><octave>1</octave></pitch><duration>4</duration><type>quarter</type><accidental>flat</accidental></note><note><pitch><step>C</step><alter>0</alter><octave>1</octave></pitch><duration>4</duration><type>quarter</type></note></measure><measure number="14"><attributes><divisions>4</divisions></attributes><note dynamics="20"><pitch><step>D</step><alter>0</alter><octave>1</octave></pitch><duration>8</duration><type>half</type></note><note><pitch><step>C</step><alter>0</alter><octave>1</octave></pitch><duration>4</duration><type>quarter</type></note><note><pitch><step>B</step><alter>-1</alter><octave>0</octave></pitch><duration>4</duration><type>quarter</type><accidental>flat</accidental></note></measure><measure number="15"><attributes><divisions>4</divisions></attributes><note dynamics="20"><pitch><step>C</step><alter>0</alter><octave>1</octave></pitch><duration>8</duration><type>half</type></note><note><pitch><step>D</step><alter>0</alter><octave>1</octave></pitch><duration>8</duration><type>half</type></note></measure><measure number="16"><attributes><divisions>4</divisions></attributes><note dynamics="20"><pitch><step>D</step><alter>0</alter><octave>1</octave></pitch><duration>8</duration><type>half</type></note><note><rest/><duration>8</duration><type>half</type></note></measure><measure number="17"><attributes><divisions>4</divisions></attributes><note dynamics="20"><pitch><step>E</step><alter>-1</alter><octave>1</octave></pitch><duration>8</duration><type>half</type><accidental>flat</accidental></note><note><pitch><step>E</step><alter>-1</alter><octave>1</octave></pitch><duration>4</duration><type>quarter</type></note><note><pitch><step>E</step><alter>-1</alter><octave>1</octave></pitch><duration>4</duration><type>quarter</type></note></measure><measure number="18"><attributes><divisions>4</divisions></attributes><note dynamics="20"><pitch><step>G</step><alter>0</alter><octave>1</octave></pitch><duration>8</duration><type>half</type></note><note><pitch><step>G</step><alter>0</alter><octave>1</octave></pitch><duration>8</duration><type>half</type></note></measure><measure number="19"><attributes><divisions>4</divisions></attributes><note dynamics="20"><pitch><step>E</step><alter>-1</alter><octave>1</octave></pitch><duration>8</duration><type>half</type><accidental>flat</accidental></note><note><pitch><step>E</step><alter>-1</alter><octave>1</octave></pitch><duration>4</duration><type>quarter</type></note><note><pitch><step>E</step><alter>-1</alter><octave>1</octave></pitch><duration>4</duration><type>quarter</type></note></measure><measure number="20"><attributes><divisions>4</divisions></attributes><note dynamics="20"><pitch><step>A</step><alter>0</alter><octave>0</octave></pitch><duration>8</duration><type>half</type></note><note><pitch><step>A</step><alter>0</alter><octave>0</octave></pitch><duration>8</duration><type>half</type></note></measure><measure number="21"><attributes><divisions>4</divisions></attributes><note dynamics="20"><pitch><step>B</step><alter>-1</alter><octave>0</octave></pitch><duration>8</duration><type>half</type><accidental>flat</accidental></note><note><pitch><step>B</step><alter>-1</alter><octave>0</octave></pitch><duration>4</duration><type>quarter</type></note><note><pitch><step>E</step><alter>-1</alter><octave>1</octave></pitch><duration>4</duration><type>quarter</type><accidental>flat</accidental></note></measure><measure number="22"><attributes><divisions>4</divisions></attributes><note dynamics="20"><pitch><step>D</step><alter>0</alter><octave>1</octave></pitch><duration>8</duration><type>half</type></note><note><pitch><step>C</step><alter>1</alter><octave>1</octave></pitch><duration>8</duration><type>half</type><accidental>sharp</accidental></note></measure><measure number="23"><attributes><divisions>4</divisions></attributes><note dynamics="20"><pitch><step>C</step><alter>0</alter><octave>1</octave></pitch><duration>8</duration><type>half</type></note><note><pitch><step>D</step><alter>0</alter><octave>1</octave></pitch><duration>4</duration><type>quarter</type></note><note><pitch><step>E</step><alter>-1</alter><octave>1</octave></pitch><duration>4</duration><type>quarter</type><accidental>flat</accidental></note></measure><measure number="24"><attributes><divisions>4</divisions></attributes><note dynamics="20"><pitch><step>D</step><alter>0</alter><octave>1</octave></pitch><duration>8</duration><type>half</type></note><note><rest/><duration>8</duration><type>half</type></note></measure><measure number="25"><attributes><divisions>4</divisions></attributes><note dynamics="20"><pitch><step>E</step><alter>-1</alter><octave>1</octave></pitch><duration>8</duration><type>half</type><accidental>flat</accidental></note><note><pitch><step>D</step><alter>0</alter><octave>1</octave></pitch><duration>4</duration><type>quarter</type></note><note><pitch><step>E</step><alter>-1</alter><octave>1</octave></pitch><duration>4</duration><type>quarter</type></note></measure><measure number="26"><attributes><divisions>4</divisions></attributes><note dynamics="20"><pitch><step>D</step><alter>0</alter><octave>1</octave></pitch><duration>8</duration><type>half</type></note><note><pitch><step>D</step><alter>0</alter><octave>1</octave></pitch><duration>4</duration><type>quarter</type></note><note><pitch><step>E</step><alter>-1</alter><octave>1</octave></pitch><duration>4</duration><type>quarter</type><accidental>flat</accidental></note></measure><measure number="27"><attributes><divisions>4</divisions></attributes><note dynamics="20"><pitch><step>D</step><alter>0</alter><octave>1</octave></pitch><duration>8</duration><type>half</type></note><note><pitch><step>E</step><alter>-1</alter><octave>1</octave></pitch><duration>4</duration><type>quarter</type><accidental>flat</accidental></note><note><pitch><step>D</step><alter>0</alter><octave>1</octave></pitch><duration>4</duration><type>quarter</type></note></measure><measure number="28"><attributes><divisions>4</divisions></attributes><note dynamics="20"><pitch><step>E</step><alter>-1</alter><octave>1</octave></pitch><duration>8</duration><type>half</type><accidental>flat</accidental></note><note><pitch><step>B</step><alter>-1</alter><octave>0</octave></pitch><duration>4</duration><type>quarter</type><accidental>flat</accidental></note><note><pitch><step>B</step><alter>-1</alter><octave>0</octave></pitch><duration>4</duration><type>quarter</type></note></measure><measure number="29"><attributes><divisions>4</divisions></attributes><note dynamics="20"><pitch><step>E</step><alter>0</alter><octave>1</octave></pitch><duration>8</duration><type>half</type></note><note><pitch><step>D</step><alter>0</alter><octave>1</octave></pitch><duration>4</duration><type>quarter</type></note><note><pitch><step>D</step><alter>0</alter><octave>1</octave></pitch><duration>4</duration><type>quarter</type></note></measure><measure number="30"><attributes><divisions>4</divisions></attributes><note dynamics="20"><pitch><step>C</step><alter>1</alter><octave>1</octave></pitch><duration>8</duration><type>half</type><accidental>sharp</accidental></note><note><pitch><step>D</step><alter>0</alter><octave>1</octave></pitch><duration>4</duration><type>quarter</type></note><note><pitch><step>E</step><alter>0</alter><octave>1</octave></pitch><duration>4</duration><type>quarter</type></note></measure><measure number="31"><attributes><divisions>4</divisions></attributes><note dynamics="20"><pitch><step>D</step><alter>0</alter><octave>1</octave></pitch><duration>8</duration><type>half</type></note><note><pitch><step>F</step><alter>1</alter><octave>1</octave></pitch><duration>8</duration><type>half</type><accidental>sharp</accidental></note></measure><measure number="32"><attributes><divisions>4</divisions></attributes><note dynamics="20"><pitch><step>G</step><alter>0</alter><octave>1</octave></pitch><duration>8</duration><type>half</type></note><note><rest/><duration>8</duration><type>half</type></note><barline><bar-style>light-heavy</bar-style></barline></measure></part><part id="part-Doublebass3-3"><measure number="1"><attributes><divisions>4</divisions><key><fifths>0</fifths><mode>major</mode></key><time><beats>4</beats><beat-type>4</beat-type></time><clef><sign>F</sign><line>4</line></clef></attributes><direction><direction-type><words>molto legato</words></direction-type></direction><direction><direction-type><words>sord - practise metal mute</words></direction-type></direction><note dynamics="20"><pitch><step>B</step><alter>-1</alter><octave>1</octave></pitch><duration>8</duration><type>half</type><accidental>flat</accidental><notations><dynamics placement="below"><ppp/></dynamics></notations></note><note><pitch><step>C</step><alter>0</alter><octave>2</octave></pitch><duration>4</duration><type>quarter</type></note><note><pitch><step>A</step><alter>0</alter><octave>1</octave></pitch><duration>4</duration><type>quarter</type></note></measure><measure number="2"><attributes><divisions>4</divisions></attributes><note dynamics="20"><pitch><step>B</step><alter>-1</alter><octave>1</octave></pitch><duration>8</duration><type>half</type><accidental>flat</accidental></note><note><pitch><step>C</step><alter>0</alter><octave>2</octave></pitch><duration>4</duration><type>quarter</type></note><note><pitch><step>D</step><alter>0</alter><octave>2</octave></pitch><duration>4</duration><type>quarter</type></note></measure><measure number="3"><attributes><divisions>4</divisions></attributes><note dynamics="20"><pitch><step>C</step><alter>0</alter><octave>2</octave></pitch><duration>8</duration><type>half</type></note><note><pitch><step>B</step><alter>-1</alter><octave>1</octave></pitch><duration>4</duration><type>quarter</type><accidental>flat</accidental></note><note><pitch><step>A</step><alter>0</alter><octave>1</octave></pitch><duration>4</duration><type>quarter</type></note></measure><measure number="4"><attributes><divisions>4</divisions></attributes><note dynamics="20"><pitch><step>B</step><alter>-1</alter><octave>1</octave></pitch><duration>8</duration><type>half</type><accidental>flat</accidental></note><note><pitch><step>G</step><alter>0</alter><octave>1</octave></pitch><duration>4</duration><type>quarter</type></note><note><pitch><step>A</step><alter>0</alter><octave>1</octave></pitch><duration>4</duration><type>quarter</type></note></measure><measure number="5"><attributes><divisions>4</divisions></attributes><note dynamics="20"><pitch><step>B</step><alter>-1</alter><octave>1</octave></pitch><duration>8</duration><type>half</type><accidental>flat</accidental></note><note><pitch><step>C</step><alter>0</alter><octave>2</octave></pitch><duration>4</duration><type>quarter</type></note><note><pitch><step>A</step><alter>0</alter><octave>1</octave></pitch><duration>4</duration><type>quarter</type></note></measure><measure number="6"><attributes><divisions>4</divisions></attributes><note dynamics="20"><pitch><step>B</step><alter>-1</alter><octave>1</octave></pitch><duration>8</duration><type>half</type><accidental>flat</accidental></note><note><pitch><step>A</step><alter>0</alter><octave>1</octave></pitch><duration>4</duration><type>quarter</type></note><note><pitch><step>G</step><alter>0</alter><octave>1</octave></pitch><duration>4</duration><type>quarter</type></note></measure><measure number="7"><attributes><divisions>4</divisions></attributes><note dynamics="20"><pitch><step>D</step><alter>0</alter><octave>1</octave></pitch><duration>8</duration><type>half</type></note><note dynamics="20"><chord/><pitch><step>A</step><alter>0</alter><octave>1</octave></pitch><duration>8</duration><type>half</type></note><note><pitch><step>A</step><alter>0</alter><octave>1</octave></pitch><duration>8</duration><type>half</type></note></measure><measure number="8"><attributes><divisions>4</divisions></attributes><note dynamics="20"><pitch><step>B</step><alter>-1</alter><octave>1</octave></pitch><duration>8</duration><type>half</type><accidental>flat</accidental></note><note><rest/><duration>8</duration><type>half</type></note></measure><measure number="9"><attributes><divisions>4</divisions></attributes><note dynamics="20"><pitch><step>B</step><alter>-1</alter><octave>1</octave></pitch><duration>8</duration><type>half</type><accidental>flat</accidental></note><note><pitch><step>C</step><alter>0</alter><octave>2</octave></pitch><duration>4</duration><type>quarter</type></note><note><pitch><step>A</step><alter>0</alter><octave>1</octave></pitch><duration>4</duration><type>quarter</type></note></measure><measure number="10"><attributes><divisions>4</divisions></attributes><note dynamics="20"><pitch><step>B</step><alter>-1</alter><octave>1</octave></pitch><duration>8</duration><type>half</type><accidental>flat</accidental></note><note><pitch><step>C</step><alter>0</alter><octave>2</octave></pitch><duration>4</duration><type>quarter</type></note><note><pitch><step>D</step><alter>0</alter><octave>2</octave></pitch><duration>4</duration><type>quarter</type></note></measure><measure number="11"><attributes><divisions>4</divisions></attributes><note dynamics="20"><pitch><step>C</step><alter>0</alter><octave>2</octave></pitch><duration>8</duration><type>half</type></note><note><pitch><step>B</step><alter>-1</alter><octave>1</octave></pitch><duration>4</duration><type>quarter</type><accidental>flat</accidental></note><note><pitch><step>A</step><alter>0</alter><octave>1</octave></pitch><duration>4</duration><type>quarter</type></note></measure><measure number="12"><attributes><divisions>4</divisions></attributes><note dynamics="20"><pitch><step>B</step><alter>-1</alter><octave>1</octave></pitch><duration>8</duration><type>half</type><accidental>flat</accidental></note><note><pitch><step>G</step><alter>0</alter><octave>1</octave></pitch><duration>4</duration><type>quarter</type></note><note><pitch><step>A</step><alter>0</alter><octave>1</octave></pitch><duration>4</duration><type>quarter</type></note></measure><measure number="13"><attributes><divisions>4</divisions></attributes><note dynamics="20"><pitch><step>B</step><alter>-1</alter><octave>1</octave></pitch><duration>8</duration><type>half</type><accidental>flat</accidental></note><note><pitch><step>C</step><alter>0</alter><octave>2</octave></pitch><duration>4</duration><type>quarter</type></note><note><pitch><step>A</step><alter>0</alter><octave>1</octave></pitch><duration>4</duration><type>quarter</type></note></measure><measure number="14"><attributes><divisions>4</divisions></attributes><note dynamics="20"><pitch><step>B</step><alter>-1</alter><octave>1</octave></pitch><duration>8</duration><type>half</type><accidental>flat</accidental></note><note><pitch><step>A</step><alter>0</alter><octave>1</octave></pitch><duration>4</duration><type>quarter</type></note><note><pitch><step>G</step><alter>0</alter><octave>1</octave></pitch><duration>4</duration><type>quarter</type></note></measure><measure number="15"><attributes><divisions>4</divisions></attributes><note dynamics="20"><pitch><step>D</step><alter>0</alter><octave>1</octave></pitch><duration>8</duration><type>half</type></note><note dynamics="20"><chord/><pitch><step>A</step><alter>0</alter><octave>1</octave></pitch><duration>8</duration><type>half</type></note><note><pitch><step>A</step><alter>0</alter><octave>1</octave></pitch><duration>8</duration><type>half</type></note></measure><measure number="16"><attributes><divisions>4</divisions></attributes><note dynamics="20"><pitch><step>B</step><alter>-1</alter><octave>1</octave></pitch><duration>8</duration><type>half</type><accidental>flat</accidental></note><note><rest/><duration>8</duration><type>half</type></note></measure><measure number="17"><attributes><divisions>4</divisions></attributes><note dynamics="20"><pitch><step>B</step><alter>-1</alter><octave>1</octave></pitch><duration>8</duration><type>half</type><accidental>flat</accidental></note><note><pitch><step>B</step><alter>-1</alter><octave>1</octave></pitch><duration>4</duration><type>quarter</type></note><note><pitch><step>B</step><alter>-1</alter><octave>1</octave></pitch><duration>4</duration><type>quarter</type></note></measure><measure number="18"><attributes><divisions>4</divisions></attributes><note dynamics="20"><pitch><step>D</step><alter>0</alter><octave>2</octave></pitch><duration>8</duration><type>half</type></note><note><pitch><step>D</step><alter>0</alter><octave>2</octave></pitch><duration>8</duration><type>half</type></note></measure><measure number="19"><attributes><divisions>4</divisions></attributes><direction><direction-type><words>○</words></direction-type></direction><note dynamics="20"><pitch><step>C</step><alter>0</alter><octave>5</octave></pitch><duration>8</duration><type>half</type></note><note><pitch><step>C</step><alter>0</alter><octave>5</octave></pitch><duration>4</duration><type>quarter</type></note><note><pitch><step>C</step><alter>0</alter><octave>5</octave></pitch><duration>4</duration><type>quarter</type></note></measure><measure number="20"><attributes><divisions>4</divisions></attributes><note dynamics="20"><pitch><step>F</step><alter>1</alter><octave>1</octave></pitch><duration>8</duration><type>half</type><accidental>sharp</accidental></note><note><pitch><step>F</step><alter>1</alter><octave>1</octave></pitch><duration>8</duration><type>half</type></note></measure><measure number="21"><attributes><divisions>4</divisions></attributes><note dynamics="20"><pitch><step>G</step><alter>0</alter><octave>1</octave></pitch><duration>8</duration><type>half</type></note><note><pitch><step>G</step><alter>0</alter><octave>1</octave></pitch><duration>4</duration><type>quarter</type></note><note><pitch><step>G</step><alter>0</alter><octave>1</octave></pitch><duration>4</duration><type>quarter</type></note></measure><measure number="22"><attributes><divisions>4</divisions></attributes><note dynamics="20"><pitch><step>G</step><alter>0</alter><octave>1</octave></pitch><duration>8</duration><type>half</type></note><note><pitch><step>B</step><alter>-1</alter><octave>1</octave></pitch><duration>8</duration><type>half</type><accidental>flat</accidental></note></measure><measure number="23"><attributes><divisions>4</divisions></attributes><note dynamics="20"><pitch><step>B</step><alter>-1</alter><octave>1</octave></pitch><duration>8</duration><type>half</type><accidental>flat</accidental></note><note><pitch><step>A</step><alter>0</alter><octave>1</octave></pitch><duration>4</duration><type>quarter</type></note><note><pitch><step>A</step><alter>0</alter><octave>1</octave></pitch><duration>4</duration><type>quarter</type></note></measure><measure number="24"><attributes><divisions>4</divisions></attributes><note dynamics="20"><pitch><step>B</step><alter>-1</alter><octave>1</octave></pitch><duration>8</duration><type>half</type><accidental>flat</accidental></note><note><pitch><step>B</step><alter>-1</alter><octave>1</octave></pitch><duration>4</duration><type>quarter</type></note><note><pitch><step>B</step><alter>-1</alter><octave>1</octave></pitch><duration>4</duration><type>quarter</type></note></measure><measure number="25"><attributes><divisions>4</divisions></attributes><note dynamics="20"><pitch><step>B</step><alter>-1</alter><octave>1</octave></pitch><duration>8</duration><type>half</type><accidental>flat</accidental></note><note><pitch><step>B</step><alter>-1</alter><octave>1</octave></pitch><duration>4</duration><type>quarter</type></note><note><pitch><step>B</step><alter>-1</alter><octave>1</octave></pitch><duration>4</duration><type>quarter</type></note></measure><measure number="26"><attributes><divisions>4</divisions></attributes><note dynamics="20"><pitch><step>B</step><alter>-1</alter><octave>1</octave></pitch><duration>8</duration><type>half</type><accidental>flat</accidental></note><note><pitch><step>B</step><alter>-1</alter><octave>1</octave></pitch><duration>4</duration><type>quarter</type></note><note><pitch><step>B</step><alter>-1</alter><octave>4</octave></pitch><duration>4</duration><type>quarter</type><accidental>flat</accidental></note></measure><measure number="27"><attributes><divisions>4</divisions></attributes><note dynamics="20"><pitch><step>B</step><alter>-1</alter><octave>4</octave></pitch><duration>8</duration><type>half</type><accidental>flat</accidental></note><note><pitch><step>B</step><alter>-1</alter><octave>4</octave></pitch><duration>4</duration><type>quarter</type></note><note><pitch><step>B</step><alter>-1</alter><octave>4</octave></pitch><duration>4</duration><type>quarter</type></note></measure><measure number="28"><attributes><divisions>4</divisions></attributes><note dynamics="20"><pitch><step>B</step><alter>-1</alter><octave>4</octave></pitch><duration>8</duration><type>half</type><accidental>flat</accidental></note><note><pitch><step>B</step><alter>-1</alter><octave>1</octave></pitch><duration>4</duration><type>quarter</type><accidental>flat</accidental></note><note><pitch><step>B</step><alter>-1</alter><octave>1</octave></pitch><duration>4</duration><type>quarter</type></note></measure><measure number="29"><attributes><divisions>4</divisions></attributes><note dynamics="20"><pitch><step>A</step><alter>0</alter><octave>1</octave></pitch><duration>8</duration><type>half</type></note><note><pitch><step>A</step><alter>0</alter><octave>1</octave></pitch><duration>4</duration><type>quarter</type></note><note><pitch><step>A</step><alter>0</alter><octave>1</octave></pitch><duration>4</duration><type>quarter</type></note></measure><measure number="30"><attributes><divisions>4</divisions></attributes><note dynamics="20"><pitch><step>A</step><alter>0</alter><octave>1</octave></pitch><duration>8</duration><type>half</type></note><note><pitch><step>A</step><alter>0</alter><octave>1</octave></pitch><duration>4</duration><type>quarter</type></note><note><pitch><step>A</step><alter>0</alter><octave>1</octave></pitch><duration>4</duration><type>quarter</type></note></measure><measure number="31"><attributes><divisions>4</divisions></attributes><note dynamics="20"><pitch><step>B</step><alter>0</alter><octave>1</octave></pitch><duration>8</duration><type>half</type></note><note><pitch><step>D</step><alter>0</alter><octave>2</octave></pitch><duration>8</duration><type>half</type></note><note><chord/><pitch><step>C</step><alter>0</alter><octave>2</octave></pitch><duration>8</duration><type>half</type></note></measure><measure number="32"><attributes><divisions>4</divisions></attributes><note dynamics="20"><pitch><step>D</step><alter>0</alter><octave>2</octave></pitch><duration>8</duration><type>half</type></note><note dynamics="20"><chord/><pitch><step>B</step><alter>0</alter><octave>1</octave></pitch><duration>8</duration><type>half</type></note><note><rest/><duration>8</duration><type>half</type></note><barline><bar-style>light-heavy</bar-style></barline></measure></part><part id="part-Doublebass4-4"><measure number="1"><attributes><divisions>4</divisions><key><fifths>0</fifths><mode>major</mode></key><time><beats>4</beats><beat-type>4</beat-type></time><clef><sign>F</sign><line>4</line></clef></attributes><direction><direction-type><words>molto legato</words></direction-type></direction><direction><direction-type><words>sord - practise metal mute</words></direction-type></direction><note dynamics="20"><pitch><step>G</step><alter>0</alter><octave>1</octave></pitch><duration>8</duration><type>half</type><notations><dynamics placement="below"><ppp/></dynamics></notations></note><note><pitch><step>G</step><alter>0</alter><octave>1</octave></pitch><duration>4</duration><type>quarter</type></note><note><pitch><step>G</step><alter>0</alter><octave>1</octave></pitch><duration>4</duration><type>quarter</type></note></measure><measure number="2"><attributes><divisions>4</divisions></attributes><note dynamics="20"><pitch><step>G</step><alter>0</alter><octave>1</octave></pitch><duration>8</duration><type>half</type></note><note><pitch><step>G</step><alter>0</alter><octave>1</octave></pitch><duration>4</duration><type>quarter</type></note><note><pitch><step>G</step><alter>0</alter><octave>1</octave></pitch><duration>4</duration><type>quarter</type></note></measure><measure number="3"><attributes><divisions>4</divisions></attributes><note dynamics="20"><pitch><step>D</step><alter>0</alter><octave>1</octave></pitch><duration>8</duration><type>half</type></note><note><pitch><step>D</step><alter>0</alter><octave>1</octave></pitch><duration>4</duration><type>quarter</type></note><note><pitch><step>D</step><alter>0</alter><octave>1</octave></pitch><duration>4</duration><type>quarter</type></note></measure><measure number="4"><attributes><divisions>4</divisions></attributes><note dynamics="20"><pitch><step>G</step><alter>0</alter><octave>1</octave></pitch><duration>8</duration><type>half</type></note><note><pitch><step>G</step><alter>0</alter><octave>1</octave></pitch><duration>4</duration><type>quarter</type></note><note><pitch><step>G</step><alter>0</alter><octave>1</octave></pitch><duration>4</duration><type>quarter</type></note></measure><measure number="5"><attributes><divisions>4</divisions></attributes><note dynamics="20"><pitch><step>G</step><alter>0</alter><octave>1</octave></pitch><duration>8</duration><type>half</type></note><note><pitch><step>G</step><alter>0</alter><octave>1</octave></pitch><duration>4</duration><type>quarter</type></note><note><pitch><step>G</step><alter>0</alter><octave>1</octave></pitch><duration>4</duration><type>quarter</type></note></measure><measure number="6"><attributes><divisions>4</divisions></attributes><note dynamics="20"><pitch><step>G</step><alter>0</alter><octave>1</octave></pitch><duration>8</duration><type>half</type></note><note><pitch><step>D</step><alter>0</alter><octave>1</octave></pitch><duration>4</duration><type>quarter</type></note><note><chord/><pitch><step>G</step><alter>0</alter><octave>1</octave></pitch><duration>4</duration><type>quarter</type></note><note><pitch><step>D</step><alter>0</alter><octave>1</octave></pitch><duration>4</duration><type>quarter</type></note><note><chord/><pitch><step>G</step><alter>0</alter><octave>1</octave></pitch><duration>4</duration><type>quarter</type></note></measure><measure number="7"><attributes><divisions>4</divisions></attributes><note dynamics="20"><pitch><step>D</step><alter>0</alter><octave>1</octave></pitch><duration>8</duration><type>half</type></note><note><pitch><step>D</step><alter>0</alter><octave>1</octave></pitch><duration>8</duration><type>half</type></note></measure><measure number="8"><attributes><divisions>4</divisions></attributes><note dynamics="20"><pitch><step>G</step><alter>0</alter><octave>1</octave></pitch><duration>8</duration><type>half</type></note><note><rest/><duration>8</duration><type>half</type></note></measure><measure number="9"><attributes><divisions>4</divisions></attributes><note dynamics="20"><pitch><step>G</step><alter>0</alter><octave>1</octave></pitch><duration>8</duration><type>half</type></note><note><pitch><step>G</step><alter>0</alter><octave>1</octave></pitch><duration>4</duration><type>quarter</type></note><note><pitch><step>G</step><alter>0</alter><octave>1</octave></pitch><duration>4</duration><type>quarter</type></note></measure><measure number="10"><attributes><divisions>4</divisions></attributes><note dynamics="20"><pitch><step>G</step><alter>0</alter><octave>1</octave></pitch><duration>8</duration><type>half</type></note><note><pitch><step>G</step><alter>0</alter><octave>1</octave></pitch><duration>4</duration><type>quarter</type></note><note><pitch><step>G</step><alter>0</alter><octave>1</octave></pitch><duration>4</duration><type>quarter</type></note></measure><measure number="11"><attributes><divisions>4</divisions></attributes><note dynamics="20"><pitch><step>D</step><alter>0</alter><octave>1</octave></pitch><duration>8</duration><type>half</type></note><note><pitch><step>D</step><alter>0</alter><octave>1</octave></pitch><duration>4</duration><type>quarter</type></note><note><pitch><step>D</step><alter>0</alter><octave>1</octave></pitch><duration>4</duration><type>quarter</type></note></measure><measure number="12"><attributes><divisions>4</divisions></attributes><note dynamics="20"><pitch><step>G</step><alter>0</alter><octave>1</octave></pitch><duration>8</duration><type>half</type></note><note><pitch><step>G</step><alter>0</alter><octave>1</octave></pitch><duration>4</duration><type>quarter</type></note><note><pitch><step>G</step><alter>0</alter><octave>1</octave></pitch><duration>4</duration><type>quarter</type></note></measure><measure number="13"><attributes><divisions>4</divisions></attributes><note dynamics="20"><pitch><step>G</step><alter>0</alter><octave>1</octave></pitch><duration>8</duration><type>half</type></note><note><pitch><step>G</step><alter>0</alter><octave>1</octave></pitch><duration>4</duration><type>quarter</type></note><note><pitch><step>G</step><alter>0</alter><octave>1</octave></pitch><duration>4</duration><type>quarter</type></note></measure><measure number="14"><attributes><divisions>4</divisions></attributes><note dynamics="20"><pitch><step>G</step><alter>0</alter><octave>1</octave></pitch><duration>8</duration><type>half</type></note><note><pitch><step>D</step><alter>0</alter><octave>1</octave></pitch><duration>4</duration><type>quarter</type></note><note><chord/><pitch><step>G</step><alter>0</alter><octave>1</octave></pitch><duration>4</duration><type>quarter</type></note><note><pitch><step>D</step><alter>0</alter><octave>1</octave></pitch><duration>4</duration><type>quarter</type></note><note><chord/><pitch><step>G</step><alter>0</alter><octave>1</octave></pitch><duration>4</duration><type>quarter</type></note></measure><measure number="15"><attributes><divisions>4</divisions></attributes><note dynamics="20"><pitch><step>D</step><alter>0</alter><octave>1</octave></pitch><duration>8</duration><type>half</type></note><note><pitch><step>D</step><alter>0</alter><octave>1</octave></pitch><duration>8</duration><type>half</type></note></measure><measure number="16"><attributes><divisions>4</divisions></attributes><note dynamics="20"><pitch><step>G</step><alter>0</alter><octave>1</octave></pitch><duration>8</duration><type>half</type></note><note><rest/><duration>8</duration><type>half</type></note></measure><measure number="17"><attributes><divisions>4</divisions></attributes><note dynamics="20"><pitch><step>E</step><alter>-1</alter><octave>1</octave></pitch><duration>8</duration><type>half</type><accidental>flat</accidental></note><note><pitch><step>E</step><alter>-1</alter><octave>1</octave></pitch><duration>4</duration><type>quarter</type></note><note><pitch><step>E</step><alter>-1</alter><octave>1</octave></pitch><duration>4</duration><type>quarter</type></note></measure><measure number="18"><attributes><divisions>4</divisions></attributes><note dynamics="20"><pitch><step>B</step><alter>-1</alter><octave>0</octave></pitch><duration>8</duration><type>half</type><accidental>flat</accidental></note><note><pitch><step>B</step><alter>-1</alter><octave>0</octave></pitch><duration>8</duration><type>half</type></note></measure><measure number="19"><attributes><divisions>4</divisions></attributes><note dynamics="20"><pitch><step>C</step><alter>0</alter><octave>1</octave></pitch><duration>8</duration><type>half</type></note><note><pitch><step>C</step><alter>0</alter><octave>1</octave></pitch><duration>4</duration><type>quarter</type></note><note><pitch><step>C</step><alter>0</alter><octave>1</octave></pitch><duration>4</duration><type>quarter</type></note></measure><measure number="20"><attributes><divisions>4</divisions></attributes><note dynamics="20"><pitch><step>D</step><alter>0</alter><octave>1</octave></pitch><duration>8</duration><type>half</type></note><note><pitch><step>D</step><alter>0</alter><octave>1</octave></pitch><duration>8</duration><type>half</type></note></measure><measure number="21"><attributes><divisions>4</divisions></attributes><note dynamics="20"><pitch><step>E</step><alter>-1</alter><octave>1</octave></pitch><duration>8</duration><type>half</type><accidental>flat</accidental></note><note><pitch><step>D</step><alter>0</alter><octave>1</octave></pitch><duration>4</duration><type>quarter</type></note><note><pitch><step>C</step><alter>0</alter><octave>1</octave></pitch><duration>4</duration><type>quarter</type></note></measure><measure number="22"><attributes><divisions>4</divisions></attributes><note dynamics="20"><pitch><step>B</step><alter>-1</alter><octave>0</octave></pitch><duration>8</duration><type>half</type><accidental>flat</accidental></note><note><pitch><step>E</step><alter>0</alter><octave>1</octave></pitch><duration>8</duration><type>half</type></note></measure><measure number="23"><attributes><divisions>4</divisions></attributes><note dynamics="20"><pitch><step>F</step><alter>0</alter><octave>1</octave></pitch><duration>8</duration><type>half</type></note><note><pitch><step>F</step><alter>0</alter><octave>1</octave></pitch><duration>4</duration><type>quarter</type></note><note><pitch><step>F</step><alter>0</alter><octave>1</octave></pitch><duration>4</duration><type>quarter</type></note></measure><measure number="24"><attributes><divisions>4</divisions></attributes><note dynamics="20"><pitch><step>B</step><alter>-1</alter><octave>0</octave></pitch><duration>8</duration><type>half</type><accidental>flat</accidental></note><note><rest/><duration>8</duration><type>half</type></note></measure><measure number="25"><attributes><divisions>4</divisions></attributes><note dynamics="20"><pitch><step>E</step><alter>-1</alter><octave>1</octave></pitch><duration>8</duration><type>half</type><accidental>flat</accidental></note><note><pitch><step>B</step><alter>-1</alter><octave>0</octave></pitch><duration>4</duration><type>quarter</type><accidental>flat</accidental></note><note><pitch><step>G</step><alter>0</alter><octave>1</octave></pitch><duration>4</duration><type>quarter</type></note></measure><measure number="26"><attributes><divisions>4</divisions></attributes><note dynamics="20"><pitch><step>B</step><alter>-1</alter><octave>0</octave></pitch><duration>8</duration><type>half</type><accidental>flat</accidental></note><note><pitch><step>B</step><alter>-1</alter><octave>0</octave></pitch><duration>4</duration><type>quarter</type></note><note><pitch><step>E</step><alter>-1</alter><octave>1</octave></pitch><duration>4</duration><type>quarter</type><accidental>flat</accidental></note></measure><measure number="27"><attributes><divisions>4</divisions></attributes><note dynamics="20"><pitch><step>F</step><alter>0</alter><octave>1</octave></pitch><duration>8</duration><type>half</type></note><note><pitch><step>E</step><alter>-1</alter><octave>1</octave></pitch><duration>4</duration><type>quarter</type><accidental>flat</accidental></note><note><pitch><step>B</step><alter>-1</alter><octave>0</octave></pitch><duration>4</duration><type>quarter</type><accidental>flat</accidental></note></measure><measure number="28"><attributes><divisions>4</divisions></attributes><note dynamics="20"><pitch><step>E</step><alter>-1</alter><octave>1</octave></pitch><duration>8</duration><type>half</type><accidental>flat</accidental></note><note><pitch><step>E</step><alter>-1</alter><octave>1</octave></pitch><duration>4</duration><type>quarter</type></note><note><pitch><step>D</step><alter>0</alter><octave>1</octave></pitch><duration>4</duration><type>quarter</type></note></measure><measure number="29"><attributes><divisions>4</divisions></attributes><note dynamics="20"><pitch><step>C</step><alter>1</alter><octave>1</octave></pitch><duration>8</duration><type>half</type><accidental>sharp</accidental></note><note><pitch><step>D</step><alter>0</alter><octave>1</octave></pitch><duration>4</duration><type>quarter</type></note><note><pitch><step>D</step><alter>0</alter><octave>1</octave></pitch><duration>4</duration><type>quarter</type></note></measure><measure number="30"><attributes><divisions>4</divisions></attributes><note dynamics="20"><pitch><step>E</step><alter>0</alter><octave>1</octave></pitch><duration>8</duration><type>half</type></note><note><pitch><step>D</step><alter>0</alter><octave>1</octave></pitch><duration>4</duration><type>quarter</type></note><note><pitch><step>C</step><alter>1</alter><octave>1</octave></pitch><duration>4</duration><type>quarter</type><accidental>sharp</accidental></note></measure><measure number="31"><attributes><divisions>4</divisions></attributes><note dynamics="20"><pitch><step>D</step><alter>0</alter><octave>1</octave></pitch><duration>8</duration><type>half</type></note><note><pitch><step>D</step><alter>0</alter><octave>1</octave></pitch><duration>8</duration><type>half</type></note></measure><measure number="32"><attributes><divisions>4</divisions></attributes><note dynamics="20"><pitch><step>G</step><alter>0</alter><octave>1</octave></pitch><duration>8</duration><type>half</type></note><note><rest/><duration>8</duration><type>half</type></note><barline><bar-style>light-heavy</bar-style></barline></measure></part></score-partwise>
